<?xml version="1.0" encoding="UTF-8" standalone="no"?>
<!DOCTYPE svg PUBLIC "-//W3C//DTD SVG 1.1//EN"
 "http://www.w3.org/Graphics/SVG/1.1/DTD/svg11.dtd">
<!-- Generated by graphviz version 2.47.0 (20210316.0004)
 -->
<!-- Title: dependencies Pages: 1 -->
<svg width="2886pt" height="284pt"
 viewBox="0.00 0.00 2886.00 284.00" xmlns="http://www.w3.org/2000/svg" xmlns:xlink="http://www.w3.org/1999/xlink">
<g id="graph0" class="graph" transform="scale(1 1) rotate(0) translate(4 280)">
<title>dependencies</title>
<polygon fill="white" stroke="transparent" points="-4,4 -4,-280 2882,-280 2882,4 -4,4"/>
<text text-anchor="start" x="1418.01" y="-42.4" font-family="sans-serif" font-weight="bold" font-size="14.00">Legend</text>
<polygon fill="#ffffb3" stroke="transparent" points="1205,-10 1205,-30 1225,-30 1225,-10 1205,-10"/>
<text text-anchor="start" x="1228.63" y="-15.4" font-family="sans-serif" font-size="14.00"> &#160;Declarations</text>
<polygon fill="#8dd3c7" stroke="transparent" points="1318,-10 1318,-30 1338,-30 1338,-10 1318,-10"/>
<text text-anchor="start" x="1341.73" y="-15.4" font-family="sans-serif" font-size="14.00"> &#160;Module</text>
<polygon fill="#80b1d3" stroke="transparent" points="1404,-10 1404,-30 1424,-30 1424,-10 1404,-10"/>
<text text-anchor="start" x="1427.78" y="-15.4" font-family="sans-serif" font-size="14.00"> &#160;Bootstrap</text>
<polygon fill="#fdb462" stroke="transparent" points="1501,-10 1501,-30 1521,-30 1521,-10 1501,-10"/>
<text text-anchor="start" x="1524.67" y="-15.4" font-family="sans-serif" font-size="14.00"> &#160;Providers</text>
<polygon fill="#fb8072" stroke="transparent" points="1597,-10 1597,-30 1617,-30 1617,-10 1597,-10"/>
<text text-anchor="start" x="1620.73" y="-15.4" font-family="sans-serif" font-size="14.00"> &#160;Exports</text>
<g id="clust1" class="cluster">
<title>cluster_AppModule</title>
<polygon fill="none" stroke="black" stroke-dasharray="1,5" points="8,-70 8,-268 2870,-268 2870,-70 8,-70"/>
</g>
<g id="clust2" class="cluster">
<title>cluster_AppModule_declarations</title>
<polygon fill="none" stroke="black" points="481,-78 481,-130 2862,-130 2862,-78 481,-78"/>
</g>
<g id="clust17" class="cluster">
<title>cluster_AppModule_imports</title>
<polygon fill="none" stroke="black" points="204,-78 204,-130 473,-130 473,-78 204,-78"/>
</g>
<g id="clust19" class="cluster">
<title>cluster_AppModule_bootstrap</title>
<polygon fill="none" stroke="black" points="1307,-208 1307,-260 1431,-260 1431,-208 1307,-208"/>
</g>
<g id="clust20" class="cluster">
<title>cluster_AppModule_providers</title>
<polygon fill="none" stroke="black" points="16,-78 16,-130 196,-130 196,-78 16,-78"/>
</g>
<!-- AddNotebookComponent -->
<g id="node1" class="node">
<title>AddNotebookComponent</title>
<polygon fill="#ffffb3" stroke="black" points="2854.15,-122 2693.85,-122 2693.85,-86 2854.15,-86 2854.15,-122"/>
<text text-anchor="middle" x="2774" y="-99.8" font-family="Times,serif" font-size="14.00">AddNotebookComponent</text>
</g>
<!-- AppModule -->
<g id="node15" class="node">
<title>AppModule</title>
<polygon fill="#8dd3c7" stroke="black" points="1410.66,-187 1407.66,-191 1386.66,-191 1383.66,-187 1327.34,-187 1327.34,-151 1410.66,-151 1410.66,-187"/>
<text text-anchor="middle" x="1369" y="-164.8" font-family="Times,serif" font-size="14.00">AppModule</text>
</g>
<!-- AddNotebookComponent&#45;&gt;AppModule -->
<g id="edge1" class="edge">
<title>AddNotebookComponent&#45;&gt;AppModule</title>
<path fill="none" stroke="black" d="M2774,-122.32C2774,-145.66 2774,-183 2774,-183 2774,-183 1420.67,-183 1420.67,-183"/>
<polygon fill="black" stroke="black" points="1420.67,-179.5 1410.67,-183 1420.67,-186.5 1420.67,-179.5"/>
</g>
<!-- AppComponent -->
<g id="node2" class="node">
<title>AppComponent</title>
<polygon fill="#ffffb3" stroke="black" points="2675.94,-122 2570.06,-122 2570.06,-86 2675.94,-86 2675.94,-122"/>
<text text-anchor="middle" x="2623" y="-99.8" font-family="Times,serif" font-size="14.00">AppComponent</text>
</g>
<!-- AppComponent&#45;&gt;AppModule -->
<g id="edge2" class="edge">
<title>AppComponent&#45;&gt;AppModule</title>
<path fill="none" stroke="black" d="M2623,-122.16C2623,-144.35 2623,-179 2623,-179 2623,-179 1420.72,-179 1420.72,-179"/>
<polygon fill="black" stroke="black" points="1420.72,-175.5 1410.72,-179 1420.72,-182.5 1420.72,-175.5"/>
</g>
<!-- ConfirmDeleteComponent -->
<g id="node3" class="node">
<title>ConfirmDeleteComponent</title>
<polygon fill="#ffffb3" stroke="black" points="2552.8,-122 2387.2,-122 2387.2,-86 2552.8,-86 2552.8,-122"/>
<text text-anchor="middle" x="2470" y="-99.8" font-family="Times,serif" font-size="14.00">ConfirmDeleteComponent</text>
</g>
<!-- ConfirmDeleteComponent&#45;&gt;AppModule -->
<g id="edge3" class="edge">
<title>ConfirmDeleteComponent&#45;&gt;AppModule</title>
<path fill="none" stroke="black" d="M2470,-122.28C2470,-143.32 2470,-175 2470,-175 2470,-175 1420.82,-175 1420.82,-175"/>
<polygon fill="black" stroke="black" points="1420.82,-171.5 1410.82,-175 1420.82,-178.5 1420.82,-171.5"/>
</g>
<!-- EditProfileComponent -->
<g id="node4" class="node">
<title>EditProfileComponent</title>
<polygon fill="#ffffb3" stroke="black" points="2369.27,-122 2226.73,-122 2226.73,-86 2369.27,-86 2369.27,-122"/>
<text text-anchor="middle" x="2298" y="-99.8" font-family="Times,serif" font-size="14.00">EditProfileComponent</text>
</g>
<!-- EditProfileComponent&#45;&gt;AppModule -->
<g id="edge4" class="edge">
<title>EditProfileComponent&#45;&gt;AppModule</title>
<path fill="none" stroke="black" d="M2298,-122.31C2298,-142.15 2298,-171 2298,-171 2298,-171 1420.72,-171 1420.72,-171"/>
<polygon fill="black" stroke="black" points="1420.72,-167.5 1410.72,-171 1420.72,-174.5 1420.72,-167.5"/>
</g>
<!-- FolderPanelComponent -->
<g id="node5" class="node">
<title>FolderPanelComponent</title>
<polygon fill="#ffffb3" stroke="black" points="2208.48,-122 2059.52,-122 2059.52,-86 2208.48,-86 2208.48,-122"/>
<text text-anchor="middle" x="2134" y="-99.8" font-family="Times,serif" font-size="14.00">FolderPanelComponent</text>
</g>
<!-- FolderPanelComponent&#45;&gt;AppModule -->
<g id="edge5" class="edge">
<title>FolderPanelComponent&#45;&gt;AppModule</title>
<path fill="none" stroke="black" d="M2134,-122.22C2134,-140.83 2134,-167 2134,-167 2134,-167 1420.67,-167 1420.67,-167"/>
<polygon fill="black" stroke="black" points="1420.67,-163.5 1410.67,-167 1420.67,-170.5 1420.67,-163.5"/>
</g>
<!-- ForgotPasswordComponent -->
<g id="node6" class="node">
<title>ForgotPasswordComponent</title>
<polygon fill="#ffffb3" stroke="black" points="2041.32,-122 1868.68,-122 1868.68,-86 2041.32,-86 2041.32,-122"/>
<text text-anchor="middle" x="1955" y="-99.8" font-family="Times,serif" font-size="14.00">ForgotPasswordComponent</text>
</g>
<!-- ForgotPasswordComponent&#45;&gt;AppModule -->
<g id="edge6" class="edge">
<title>ForgotPasswordComponent&#45;&gt;AppModule</title>
<path fill="none" stroke="black" d="M1955,-122.02C1955,-139.37 1955,-163 1955,-163 1955,-163 1420.67,-163 1420.67,-163"/>
<polygon fill="black" stroke="black" points="1420.67,-159.5 1410.67,-163 1420.67,-166.5 1420.67,-159.5"/>
</g>
<!-- GlobalConfirmComponent -->
<g id="node7" class="node">
<title>GlobalConfirmComponent</title>
<polygon fill="#ffffb3" stroke="black" points="1850.37,-122 1683.63,-122 1683.63,-86 1850.37,-86 1850.37,-122"/>
<text text-anchor="middle" x="1767" y="-99.8" font-family="Times,serif" font-size="14.00">GlobalConfirmComponent</text>
</g>
<!-- GlobalConfirmComponent&#45;&gt;AppModule -->
<g id="edge7" class="edge">
<title>GlobalConfirmComponent&#45;&gt;AppModule</title>
<path fill="none" stroke="black" d="M1767,-122.01C1767,-138.05 1767,-159 1767,-159 1767,-159 1420.84,-159 1420.84,-159"/>
<polygon fill="black" stroke="black" points="1420.84,-155.5 1410.84,-159 1420.84,-162.5 1420.84,-155.5"/>
</g>
<!-- GlobalErrorComponent -->
<g id="node8" class="node">
<title>GlobalErrorComponent</title>
<polygon fill="#ffffb3" stroke="black" points="1665.47,-122 1516.53,-122 1516.53,-86 1665.47,-86 1665.47,-122"/>
<text text-anchor="middle" x="1591" y="-99.8" font-family="Times,serif" font-size="14.00">GlobalErrorComponent</text>
</g>
<!-- GlobalErrorComponent&#45;&gt;AppModule -->
<g id="edge8" class="edge">
<title>GlobalErrorComponent&#45;&gt;AppModule</title>
<path fill="none" stroke="black" d="M1591,-122.12C1591,-136.78 1591,-155 1591,-155 1591,-155 1420.76,-155 1420.76,-155"/>
<polygon fill="black" stroke="black" points="1420.76,-151.5 1410.76,-155 1420.76,-158.5 1420.76,-151.5"/>
</g>
<!-- LoginComponent -->
<g id="node9" class="node">
<title>LoginComponent</title>
<polygon fill="#ffffb3" stroke="black" points="1498.28,-122 1383.72,-122 1383.72,-86 1498.28,-86 1498.28,-122"/>
<text text-anchor="middle" x="1441" y="-99.8" font-family="Times,serif" font-size="14.00">LoginComponent</text>
</g>
<!-- LoginComponent&#45;&gt;AppModule -->
<g id="edge9" class="edge">
<title>LoginComponent&#45;&gt;AppModule</title>
<path fill="none" stroke="black" d="M1397.22,-122.11C1397.22,-122.11 1397.22,-140.99 1397.22,-140.99"/>
<polygon fill="black" stroke="black" points="1393.72,-140.99 1397.22,-150.99 1400.72,-140.99 1393.72,-140.99"/>
</g>
<!-- NotebookComponent -->
<g id="node10" class="node">
<title>NotebookComponent</title>
<polygon fill="#ffffb3" stroke="black" points="1365.04,-122 1228.96,-122 1228.96,-86 1365.04,-86 1365.04,-122"/>
<text text-anchor="middle" x="1297" y="-99.8" font-family="Times,serif" font-size="14.00">NotebookComponent</text>
</g>
<!-- NotebookComponent&#45;&gt;AppModule -->
<g id="edge10" class="edge">
<title>NotebookComponent&#45;&gt;AppModule</title>
<path fill="none" stroke="black" d="M1346.22,-122.11C1346.22,-122.11 1346.22,-140.99 1346.22,-140.99"/>
<polygon fill="black" stroke="black" points="1342.72,-140.99 1346.22,-150.99 1349.72,-140.99 1342.72,-140.99"/>
</g>
<!-- NotesPanelComponent -->
<g id="node11" class="node">
<title>NotesPanelComponent</title>
<ellipse fill="#ffffb3" stroke="black" cx="1111" cy="-104" rx="100.16" ry="18"/>
<text text-anchor="middle" x="1111" y="-99.8" font-family="Times,serif" font-size="14.00">NotesPanelComponent</text>
</g>
<!-- NotesPanelComponent&#45;&gt;AppModule -->
<g id="edge11" class="edge">
<title>NotesPanelComponent&#45;&gt;AppModule</title>
<path fill="none" stroke="black" d="M1077.64,-121.1C1077.64,-137.25 1077.64,-159 1077.64,-159 1077.64,-159 1317.26,-159 1317.26,-159"/>
<polygon fill="black" stroke="black" points="1317.26,-162.5 1327.26,-159 1317.26,-155.5 1317.26,-162.5"/>
</g>
<!-- NotesPanelComponent&#45;&gt;AppModule -->
<g id="edge19" class="edge">
<title>NotesPanelComponent&#45;&gt;AppModule</title>
<path fill="none" stroke="black" d="M1144.36,-120.98C1144.36,-135.82 1144.36,-155 1144.36,-155 1144.36,-155 1317.27,-155 1317.27,-155"/>
<polygon fill="black" stroke="black" points="1317.27,-158.5 1327.27,-155 1317.27,-151.5 1317.27,-158.5"/>
</g>
<!-- RegisterComponent -->
<g id="node12" class="node">
<title>RegisterComponent</title>
<polygon fill="#ffffb3" stroke="black" points="992.98,-122 865.02,-122 865.02,-86 992.98,-86 992.98,-122"/>
<text text-anchor="middle" x="929" y="-99.8" font-family="Times,serif" font-size="14.00">RegisterComponent</text>
</g>
<!-- RegisterComponent&#45;&gt;AppModule -->
<g id="edge12" class="edge">
<title>RegisterComponent&#45;&gt;AppModule</title>
<path fill="none" stroke="black" d="M929,-122.02C929,-139.37 929,-163 929,-163 929,-163 1317.21,-163 1317.21,-163"/>
<polygon fill="black" stroke="black" points="1317.21,-166.5 1327.21,-163 1317.21,-159.5 1317.21,-166.5"/>
</g>
<!-- RestPasswordComponent -->
<g id="node13" class="node">
<title>RestPasswordComponent</title>
<polygon fill="#ffffb3" stroke="black" points="846.87,-122 687.13,-122 687.13,-86 846.87,-86 846.87,-122"/>
<text text-anchor="middle" x="767" y="-99.8" font-family="Times,serif" font-size="14.00">RestPasswordComponent</text>
</g>
<!-- RestPasswordComponent&#45;&gt;AppModule -->
<g id="edge13" class="edge">
<title>RestPasswordComponent&#45;&gt;AppModule</title>
<path fill="none" stroke="black" d="M767,-122.22C767,-140.83 767,-167 767,-167 767,-167 1317.15,-167 1317.15,-167"/>
<polygon fill="black" stroke="black" points="1317.15,-170.5 1327.15,-167 1317.15,-163.5 1317.15,-170.5"/>
</g>
<!-- SmartAssistPanelComponent -->
<g id="node14" class="node">
<title>SmartAssistPanelComponent</title>
<polygon fill="#ffffb3" stroke="black" points="669.1,-122 488.9,-122 488.9,-86 669.1,-86 669.1,-122"/>
<text text-anchor="middle" x="579" y="-99.8" font-family="Times,serif" font-size="14.00">SmartAssistPanelComponent</text>
</g>
<!-- SmartAssistPanelComponent&#45;&gt;AppModule -->
<g id="edge14" class="edge">
<title>SmartAssistPanelComponent&#45;&gt;AppModule</title>
<path fill="none" stroke="black" d="M579,-122.31C579,-142.15 579,-171 579,-171 579,-171 1317.08,-171 1317.08,-171"/>
<polygon fill="black" stroke="black" points="1317.08,-174.5 1327.08,-171 1317.08,-167.5 1317.08,-174.5"/>
</g>
<!-- AppComponent  -->
<g id="node18" class="node">
<title>AppComponent </title>
<polygon fill="#80b1d3" stroke="black" points="1423.44,-252 1314.56,-252 1314.56,-216 1423.44,-216 1423.44,-252"/>
<text text-anchor="middle" x="1369" y="-229.8" font-family="Times,serif" font-size="14.00">AppComponent </text>
</g>
<!-- AppModule&#45;&gt;AppComponent  -->
<g id="edge17" class="edge">
<title>AppModule&#45;&gt;AppComponent </title>
<path fill="none" stroke="black" stroke-dasharray="1,5" d="M1369,-187.11C1369,-187.11 1369,-205.99 1369,-205.99"/>
<polygon fill="black" stroke="black" points="1365.5,-205.99 1369,-215.99 1372.5,-205.99 1365.5,-205.99"/>
</g>
<!-- AppRoutingModule -->
<g id="node16" class="node">
<title>AppRoutingModule</title>
<polygon fill="#8dd3c7" stroke="black" points="465.27,-122 462.27,-126 441.27,-126 438.27,-122 336.73,-122 336.73,-86 465.27,-86 465.27,-122"/>
<text text-anchor="middle" x="401" y="-99.8" font-family="Times,serif" font-size="14.00">AppRoutingModule</text>
</g>
<!-- AppRoutingModule&#45;&gt;AppModule -->
<g id="edge15" class="edge">
<title>AppRoutingModule&#45;&gt;AppModule</title>
<path fill="none" stroke="black" d="M401,-122.28C401,-143.32 401,-175 401,-175 401,-175 1317.1,-175 1317.1,-175"/>
<polygon fill="black" stroke="black" points="1317.1,-178.5 1327.1,-175 1317.1,-171.5 1317.1,-178.5"/>
</g>
<!-- MaterialModule -->
<g id="node17" class="node">
<title>MaterialModule</title>
<polygon fill="#8dd3c7" stroke="black" points="318.47,-122 315.47,-126 294.47,-126 291.47,-122 211.53,-122 211.53,-86 318.47,-86 318.47,-122"/>
<text text-anchor="middle" x="265" y="-99.8" font-family="Times,serif" font-size="14.00">MaterialModule</text>
</g>
<!-- MaterialModule&#45;&gt;AppModule -->
<g id="edge16" class="edge">
<title>MaterialModule&#45;&gt;AppModule</title>
<path fill="none" stroke="black" d="M265,-122.16C265,-144.35 265,-179 265,-179 265,-179 1317.07,-179 1317.07,-179"/>
<polygon fill="black" stroke="black" points="1317.07,-182.5 1327.07,-179 1317.07,-175.5 1317.07,-182.5"/>
</g>
<!-- MessagingService -->
<g id="node19" class="node">
<title>MessagingService</title>
<ellipse fill="#fdb462" stroke="black" cx="106" cy="-104" rx="81.66" ry="18"/>
<text text-anchor="middle" x="106" y="-99.8" font-family="Times,serif" font-size="14.00">MessagingService</text>
</g>
<!-- MessagingService&#45;&gt;AppModule -->
<g id="edge18" class="edge">
<title>MessagingService&#45;&gt;AppModule</title>
<path fill="none" stroke="black" d="M106,-122.32C106,-145.66 106,-183 106,-183 106,-183 1317.34,-183 1317.34,-183"/>
<polygon fill="black" stroke="black" points="1317.34,-186.5 1327.34,-183 1317.34,-179.5 1317.34,-186.5"/>
</g>
</g>
</svg>
