<?xml version="1.0" standalone="no"?><svg xmlns="http://www.w3.org/2000/svg" viewBox="0 0 1440 320"><path fill="#115571" fill-opacity="1" d="M0,224L26.7,218.7C53.3,213,107,203,160,165.3C213.3,128,267,64,320,69.3C373.3,75,427,149,480,160C533.3,171,587,117,640,106.7C693.3,96,747,128,800,170.7C853.3,213,907,267,960,256C1013.3,245,1067,171,1120,144C1173.3,117,1227,139,1280,128C1333.3,117,1387,75,1413,53.3L1440,32L1440,0L1413.3,0C1386.7,0,1333,0,1280,0C1226.7,0,1173,0,1120,0C1066.7,0,1013,0,960,0C906.7,0,853,0,800,0C746.7,0,693,0,640,0C586.7,0,533,0,480,0C426.7,0,373,0,320,0C266.7,0,213,0,160,0C106.7,0,53,0,27,0L0,0Z"></path></svg>