<?xml version="1.0" standalone="no"?><svg xmlns="http://www.w3.org/2000/svg" viewBox="0 0 1440 320"><path fill="#115571" fill-opacity="1" d="M0,224L40,192C80,160,160,96,240,90.7C320,85,400,139,480,176C560,213,640,235,720,213.3C800,192,880,128,960,112C1040,96,1120,128,1200,133.3C1280,139,1360,117,1400,106.7L1440,96L1440,320L1400,320C1360,320,1280,320,1200,320C1120,320,1040,320,960,320C880,320,800,320,720,320C640,320,560,320,480,320C400,320,320,320,240,320C160,320,80,320,40,320L0,320Z"></path></svg>